<svg id="Merged" xmlns="http://www.w3.org/2000/svg" viewBox="0 0 120 120"><defs><style>.cls-1{fill:#fff;}.cls-2{opacity:0.9;}.cls-3{fill:#f47e45;}</style></defs><path class="cls-1" d="M75,100.33H20.22V78l1.94-1.5a13.74,13.74,0,0,0,4.56-15.54l-2.84-8.27a25.24,25.24,0,0,1,9.64-29L45.79,15.3,76.13,39.35,67.3,52.1,55.61,49.54a66.33,66.33,0,0,1,19.13,30l.22.71Zm-44.74-10H65V81.77A55.79,55.79,0,0,0,49,57.06a10,10,0,0,1,8.8-17.29l3.89.85L45.34,27.7l-6.19,4.21a15.2,15.2,0,0,0-5.81,17.47l2.82,8.22a23.7,23.7,0,0,1-5.94,25.09Z"/><g class="cls-2"><path class="cls-3" d="M66.44,92.77c6.07-5.89,9.62-9.56,9.92-18l.53-14.71-5.64-5.29V50H79.7v5.14h7.18V50h8.44v4.81l-5.63,5.29.52,14.71c.3,8.45,3.85,11.4,9.92,17.29v8.29H66.44Z"/></g></svg>