<svg id="Merged" xmlns="http://www.w3.org/2000/svg" viewBox="0 0 120 120"><defs><style>.cls-1{fill:#fff;}.cls-2{opacity:0.9;}.cls-3{fill:#f47e45;}</style></defs><path class="cls-1" d="M60,38.5h0a13.5,13.5,0,0,1,0-27h0a13.5,13.5,0,0,1,0,27ZM51.5,25h5A3.5,3.5,0,0,0,60,28.5h0a3.5,3.5,0,0,0,0-7h0A3.5,3.5,0,0,0,56.5,25Z"/><path class="cls-1" d="M60,108.5h0a13.5,13.5,0,0,1,0-27h0a13.5,13.5,0,0,1,0,27Zm0-17a3.5,3.5,0,0,0,0,7h0a3.5,3.5,0,0,0,0-7Z"/><rect class="cls-1" x="55" y="34.01" width="10" height="55.99"/><path class="cls-1" d="M97.09,65.82h0a13.52,13.52,0,0,0-15.14,1.1L70,60l12-6.9a13.5,13.5,0,0,0,20-17.33,13.49,13.49,0,0,0-25,8.68L65,51.34V37.52a13.49,13.49,0,0,0-5-26h0a13.5,13.5,0,0,0-5,26V51.33L43,44.41A13.48,13.48,0,1,0,29.67,56a13.94,13.94,0,0,0,3.49-.46,13.54,13.54,0,0,0,4.91-2.47L50,60,38,66.88a13.58,13.58,0,0,0-4.82-2.41,13.5,13.5,0,1,0,3.2,24.74h0A13.52,13.52,0,0,0,43,75.54l12-6.89V82.48a13.49,13.49,0,0,0,5,26h0a13.5,13.5,0,0,0,5-26V68.66l12,6.92a13.5,13.5,0,1,0,20.14-9.76ZM88.57,39.47A3.47,3.47,0,0,1,90.31,39a3.56,3.56,0,0,1,.91.12,3.49,3.49,0,0,1,2.47,4.29,3.42,3.42,0,0,1-1.63,2.12,3.5,3.5,0,1,1-3.49-6.06ZM32.72,44.26a3.51,3.51,0,0,1-4.79,1.27h0A3.5,3.5,0,0,1,29.69,39a3.57,3.57,0,0,1,1.76.47,3.52,3.52,0,0,1,1.27,4.79Zm.35,34.15A3.5,3.5,0,1,1,29.68,74a3.57,3.57,0,0,1,.92.12,3.52,3.52,0,0,1,2.47,4.29ZM60,98.5h0a3.5,3.5,0,0,1,0-7h0a3.5,3.5,0,0,1,0,7Zm0-70h0a3.5,3.5,0,0,1,0-7h0a3.5,3.5,0,0,1,0,7ZM93.34,79.26a3.5,3.5,0,1,1-1.27-4.79A3.5,3.5,0,0,1,93.34,79.26Z"/><g class="cls-2"><circle class="cls-3" cx="29.69" cy="77.5" r="17.5"/></g></svg>