<svg xmlns="http://www.w3.org/2000/svg" width="19.134" height="19.137" data-name="Group 1"><path d="M19.085 5.627a7.009 7.009 0 00-.445-2.322 4.674 4.674 0 00-1.107-1.7 4.7 4.7 0 00-1.693-1.1A6.991 6.991 0 0013.518.06C12.493.011 12.168 0 9.57 0S6.647.011 5.626.056a6.971 6.971 0 00-2.322.445 4.664 4.664 0 00-1.7 1.107 4.7 4.7 0 00-1.1 1.693 6.987 6.987 0 00-.445 2.322c-.049 1.024-.06 1.349-.06 3.948s.011 2.923.056 3.944A6.976 6.976 0 00.5 15.837a4.713 4.713 0 001.107 1.7 4.714 4.714 0 001.693 1.1 7.025 7.025 0 002.322.445c1.02.045 1.346.056 3.944.056s2.923-.011 3.944-.056a7.009 7.009 0 002.322-.445 4.9 4.9 0 002.8-2.8 7.03 7.03 0 00.445-2.322c.045-1.02.056-1.346.056-3.944s-.003-2.924-.048-3.944zm-1.723 7.814a5.255 5.255 0 01-.329 1.776 3.176 3.176 0 01-1.817 1.817 5.277 5.277 0 01-1.776.329c-1.01.045-1.312.056-3.865.056s-2.86-.011-3.866-.056a5.249 5.249 0 01-1.775-.329 2.944 2.944 0 01-1.1-.714 2.992 2.992 0 01-.714-1.1 5.263 5.263 0 01-.328-1.776c-.045-1.01-.056-1.313-.056-3.865s.011-2.86.056-3.866a5.235 5.235 0 01.328-1.775 2.913 2.913 0 01.718-1.1 2.97 2.97 0 011.1-.714 5.275 5.275 0 011.775-.329c1.01-.044 1.313-.056 3.866-.056s2.859.011 3.865.056a5.255 5.255 0 011.776.329 2.946 2.946 0 011.1.714 2.969 2.969 0 01.714 1.1 5.271 5.271 0 01.329 1.775c.045 1.01.056 1.313.056 3.866s-.012 2.851-.057 3.861z" data-name="Path 1" fill="#fff"/><path d="M9.571 4.654a4.918 4.918 0 00-4.917 4.917 4.917 4.917 0 004.917 4.916 4.917 4.917 0 004.916-4.916 4.917 4.917 0 00-4.916-4.917zm0 8.105A3.189 3.189 0 016.382 9.57a3.19 3.19 0 013.189-3.191 3.189 3.189 0 013.189 3.189 3.188 3.188 0 01-3.189 3.191z" data-name="Path 2" fill="#fff"/><path d="M15.829 4.46a1.148 1.148 0 01-1.148 1.148 1.148 1.148 0 01-1.148-1.148 1.148 1.148 0 011.148-1.147 1.148 1.148 0 011.148 1.147z" data-name="Path 3" fill="#fff"/></svg>