<?xml version="1.0" encoding="iso-8859-1"?>
<!-- Uploaded to: SVG Repo, www.svgrepo.com, Generator: SVG Repo Mixer Tools -->
<svg height="800px" width="800px" version="1.1" id="Capa_1" xmlns="http://www.w3.org/2000/svg" xmlns:xlink="http://www.w3.org/1999/xlink" 
	 viewBox="0 0 20.346 20.346" xml:space="preserve">
<g>
	<g>
		<path style="fill:#030104;" d="M9.765,5.072c-1.482,1.482-1.482,3.896,0,5.377c1.482,1.483,3.895,1.483,5.378,0
			c1.483-1.481,1.483-3.895,0-5.377C13.659,3.589,11.247,3.589,9.765,5.072z"/>
		<path style="fill:#030104;" d="M0,0v20.346h20.346V0H0z M16.146,11.452c-1.733,1.734-4.391,1.986-6.399,0.767l-5.586,5.586
			l-1.488-1.488l5.532-5.532C6.754,8.748,6.936,5.896,8.763,4.07c2.036-2.036,5.348-2.036,7.384,0
			C18.182,6.104,18.182,9.417,16.146,11.452z"/>
	</g>
</g>
</svg>