<svg id="Layer_1" data-name="Layer 1" xmlns="http://www.w3.org/2000/svg" viewBox="0 0 595.28 514.83"><defs><style>.cls-1{fill:#fff;}</style></defs><path class="cls-1" d="M718.29,159.32q-4,86.91-121.4,238Q475.5,555,391.48,555.05q-52.07,0-88.06-96.07-24-88.1-48.05-176.17-26.72-96-57.35-96.08-6.69,0-46.72,28l-28-36.06q44.06-38.72,86.85-77.46,58.79-50.76,88.23-53.45,69.47-6.68,85.53,95Q401.26,252.45,408,279.17q20.07,91,44.11,91,18.66,0,56.14-59.06t40.06-89.87q5.36-50.92-40.06-51-21.39,0-44.07,9.75Q508.05,36.31,631.81,40.33q91.76,2.69,86.48,119Z" transform="translate(-123.31 -40.22)"/></svg>