<svg id="Layer_1" data-name="Layer 1" xmlns="http://www.w3.org/2000/svg" viewBox="0 0 595.27 416.69"><defs><style>.cls-1{fill:#fff;}</style></defs><path class="cls-1" d="M706.15,154.36a74.58,74.58,0,0,0-52.63-52.63C607.09,89.29,420.94,89.29,420.94,89.29s-186.14,0-232.57,12.44a74.58,74.58,0,0,0-52.63,52.63c-12.43,46.42-12.43,143.28-12.43,143.28s0,96.86,12.43,143.28a74.58,74.58,0,0,0,52.63,52.63C234.8,506,420.94,506,420.94,506s186.15,0,232.58-12.43a74.58,74.58,0,0,0,52.63-52.63c12.43-46.42,12.43-143.28,12.43-143.28s0-96.86-12.43-143.28ZM361.41,386.93V208.35l154.66,89.29L361.41,386.93Z" transform="translate(-123.31 -89.29)"/></svg>