<svg id="Merged" xmlns="http://www.w3.org/2000/svg" viewBox="0 0 120 120"><defs><style>.cls-1{fill:#fff;}.cls-2{fill:#f47e45;}</style></defs><path class="cls-1" d="M96.77,23.23c-8.63-8.63-22.52-9.64-36.77-4-14.25-5.6-28.14-4.59-36.77,4s-9.64,22.52-4,36.77c-5.6,14.25-4.59,28.14,4,36.77,5.09,5.09,12,7.53,19.74,7.53a47,47,0,0,0,17-3.5,47,47,0,0,0,17,3.5c7.73,0,14.65-2.44,19.74-7.53,8.63-8.63,9.64-22.52,4-36.77C106.41,45.75,105.4,31.86,96.77,23.23ZM89.7,30.3C93.49,34.09,95,40,93.94,47.11a80.47,80.47,0,0,0-21-21C79.77,25.1,85.79,26.39,89.7,30.3Zm-47,47a64.26,64.26,0,0,1-12.5-17.27A66.5,66.5,0,0,1,60.05,30.18,66.93,66.93,0,0,1,89.82,60.05a64.26,64.26,0,0,1-12.5,17.27,64.26,64.26,0,0,1-17.27,12.5A64.71,64.71,0,0,1,42.68,77.32ZM30.3,30.3c3-3,7.35-4.55,12.58-4.55a29.71,29.71,0,0,1,4.22.32,80.14,80.14,0,0,0-21,21C25.05,40,26.51,34.09,30.3,30.3Zm0,59.4c-3.91-3.91-5.2-9.93-4.22-16.79a80.31,80.31,0,0,0,21,21C40,95,34.09,93.49,30.3,89.7Zm59.4,0c-3.91,3.91-9.94,5.2-16.8,4.22a79.21,79.21,0,0,0,11.49-9.53,78.5,78.5,0,0,0,9.53-11.48C94.9,79.77,93.61,85.79,89.7,89.7Z"/><path class="cls-2" d="M43.74,77.79a16.26,16.26,0,0,1,32.52,0Z"/><circle class="cls-2" cx="60" cy="50.74" r="8.53"/></svg>